<svg width="88" height="28" viewBox="0 0 88 28" xmlns="http://www.w3.org/2000/svg">
    <g fill="none" fill-rule="evenodd">
        <path d="M15.443 15.304c.121-.12.23-.253.32-.4l3.707-5.962c.135-.215-.116-.464-.33-.324l-6.038 3.745a2.18 2.18 0 0 0-.408.328l-.003.003c-.728.75-.71 1.948.043 2.674a1.906 1.906 0 0 0 2.685-.043c.008-.005.015-.014.024-.021zM9.313 5.053a10.14 10.14 0 0 1 1.719-.71c.458-.14.774-.558.774-1.033V.766a.752.752 0 0 0-.914-.73c-1.638.359-3.17 1-4.542 1.87a.747.747 0 0 0-.128 1.158L8.03 4.866c.337.338.857.409 1.282.187zM16.042.75v2.536c0 .478.315.896.774 1.034a9.902 9.902 0 0 1 2.001.844c.425.236.954.165 1.299-.178L21.91 3.2a.747.747 0 0 0-.114-1.151 14.2 14.2 0 0 0-4.85-2.031.75.75 0 0 0-.905.733zm-15.236 11h2.37a1.33 1.33 0 0 0 1.27-.912c.192-.603.441-1.18.74-1.726.23-.423.16-.946-.182-1.286L3.202 6.03a.752.752 0 0 0-1.159.119c-.923 1.413-1.6 3-1.968 4.702a.747.747 0 0 0 .731.898zm22.042-2.437c.25.482.461.988.63 1.513.175.55.693.922 1.272.922h2.37a.742.742 0 0 0 .728-.9 14 14 0 0 0-1.828-4.479.751.751 0 0 0-1.165-.13l-1.817 1.809a1.079 1.079 0 0 0-.19 1.265z" fill="#00ECA1" fill-rule="nonzero"/>
        <path d="M24.798 15.812c-.587 0-1.107.38-1.28.941a10 10 0 0 1-19.108 0c-.17-.56-.69-.94-1.28-.94H.608a.601.601 0 0 0-.596.709C1.264 23.059 7.036 28 13.964 28c6.93 0 12.7-4.941 13.953-11.478a.601.601 0 0 0-.596-.71h-2.523z" fill="#FDE1AD"/>
        <path d="M35.832 13.752c0-2.537 1.711-4.05 4.017-4.05 2.398 0 4.076 1.634 4.076 4.064 0 2.627-1.955 3.881-3.664 3.881-.9 0-1.663-.35-2.137-1.024v4.05h-2.292v-6.921zm5.77-.076c0-1.084-.7-1.833-1.741-1.833-1.038 0-1.742.75-1.742 1.833s.702 1.833 1.742 1.833 1.742-.747 1.742-1.833zm3.437-5.928c0-.84.625-1.468 1.467-1.468.839 0 1.467.626 1.467 1.468 0 .84-.626 1.468-1.467 1.468-.842 0-1.467-.626-1.467-1.468zm.32 2.155h2.289v7.548h-2.29V9.903zm3.948-3.3h2.289V17.45h-2.29V6.603zm3.888 7.073c0-2.293 1.68-3.972 4.062-3.972 2.382 0 4.062 1.681 4.062 3.972 0 2.29-1.68 3.971-4.062 3.971-2.381 0-4.062-1.678-4.062-3.971zm5.804 0c0-1.084-.701-1.833-1.742-1.833-1.038 0-1.742.75-1.742 1.833s.702 1.833 1.742 1.833c1.038 0 1.742-.747 1.742-1.833zm3.841.794V7.23h2.29v2.674h3.573v2.063H65.13v2.506c0 .795.367 1.039.87 1.039.502 0 .869-.244.869-1.039v-.23h2.29v.23c0 2.156-1.283 3.178-3.162 3.178-1.88 0-3.157-1.025-3.157-3.18zm7.444-.794c0-2.293 1.68-3.972 4.062-3.972 2.381 0 4.016 1.681 4.016 3.972v.642h-5.694c.182.887.855 1.283 1.68 1.283.656 0 1.144-.137 1.436-.55h2.367c-.488 1.558-1.924 2.596-3.8 2.596-2.387 0-4.067-1.678-4.067-3.971zm5.727-.809c-.258-.78-.87-1.114-1.663-1.114-.794 0-1.405.35-1.633 1.114h3.296zm3.896.901c0-2.428 1.68-4.064 4.076-4.064 2.368 0 4.017 1.575 4.017 4.05v3.697h-2.107v-1.252c-.398.931-1.25 1.45-2.336 1.45-1.68-.002-3.65-1.254-3.65-3.88zm5.801-.092c0-1.084-.701-1.833-1.741-1.833s-1.742.75-1.742 1.833.701 1.833 1.742 1.833c1.04 0 1.741-.747 1.741-1.833z" fill="#FFF"/>
    </g>
</svg>
