<?xml version="1.0" encoding="utf-8"?>
<!-- Generator: Adobe Illustrator 25.4.0, SVG Export Plug-In . SVG Version: 6.00 Build 0)  -->
<svg version="1.1" id="Capa_1" xmlns="http://www.w3.org/2000/svg" xmlns:xlink="http://www.w3.org/1999/xlink" x="0px" y="0px"
	 viewBox="0 0 45.1 45" style="enable-background:new 0 0 45.1 45;" xml:space="preserve">
<style type="text/css">
	.st0{fill:#00ECA1;}
	.st1{fill-rule:evenodd;clip-rule:evenodd;fill:#FDE1AD;}
</style>
<g>
	<path class="st0" d="M24.6,24.6c0.2-0.2,0.4-0.4,0.5-0.6l5.9-9.6c0.2-0.3-0.2-0.7-0.5-0.5l-9.6,6c-0.2,0.1-0.5,0.3-0.6,0.5l0,0
		c-1.2,1.2-1.1,3.1,0.1,4.3C21.4,25.9,23.4,25.8,24.6,24.6C24.5,24.6,24.5,24.6,24.6,24.6C24.5,24.6,24.6,24.6,24.6,24.6z M14.8,8.1
		c0.9-0.5,1.8-0.8,2.7-1.1c0.7-0.2,1.2-0.9,1.2-1.7V1.2c0-0.8-0.7-1.3-1.5-1.2c-2.6,0.6-5,1.6-7.2,3C9.5,3.4,9.4,4.2,9.7,4.7
		c0,0.1,0.1,0.1,0.2,0.2l2.9,2.9C13.3,8.4,14.1,8.5,14.8,8.1L14.8,8.1z M25.5,1.2v4.1c0,0.8,0.5,1.4,1.2,1.7
		c1.1,0.3,2.2,0.8,3.2,1.4C30.6,8.7,31.5,8.6,32,8l2.9-2.9c0.5-0.5,0.5-1.2,0-1.7c-0.1-0.1-0.1-0.1-0.2-0.1c-2.3-1.6-5-2.7-7.7-3.3
		C26.2-0.1,25.5,0.4,25.5,1.2L25.5,1.2z M1.3,18.9h3.8c0.9,0,1.7-0.6,2-1.5c0.3-1,0.7-1.9,1.2-2.8C8.6,14,8.5,13.1,8,12.6L5.1,9.7
		c-0.5-0.5-1.2-0.5-1.7,0C3.4,9.7,3.3,9.8,3.2,9.9c-1.5,2.3-2.6,4.9-3.1,7.6C0,18.1,0.4,18.7,1,18.9C1.1,18.9,1.2,18.9,1.3,18.9z
		 M36.4,15c0.4,0.8,0.7,1.6,1,2.4c0.3,0.9,1.1,1.5,2,1.5h3.8c0.7,0,1.2-0.5,1.2-1.2c0-0.1,0-0.2,0-0.3c-0.5-2.5-1.5-5-2.9-7.2
		c-0.3-0.6-1.1-0.7-1.6-0.4c-0.1,0-0.2,0.1-0.2,0.2l-2.9,2.9C36.1,13.5,36,14.3,36.4,15z"/>
	<path class="st1" d="M39.5,25.4c-0.9,0-1.8,0.6-2,1.5c-2,6.5-8,11.3-15.2,11.3S9,33.5,7,26.9c-0.3-0.9-1.1-1.5-2-1.5H1
		c-0.5,0-1,0.4-1,1c0,0.1,0,0.1,0,0.2C2,37.1,11.2,45,22.2,45c11,0,20.2-7.9,22.2-18.4c0.1-0.5-0.2-1-0.8-1.1c-0.1,0-0.1,0-0.2,0
		L39.5,25.4L39.5,25.4z"/>
</g>
</svg>
