<svg width="50" height="50" viewBox="0 0 50 50" xmlns="http://www.w3.org/2000/svg">
    <g fill-rule="nonzero" fill="none">
        <path d="M44.732 0c2.823 0 5.128 2.274 5.262 5.129l.006.26v28.078c0 2.889-2.222 5.247-5.012 5.383l-.255.006H13.178c-.277 0-.545.095-.762.265l-.124.111-10.155 10.39c-.754.772-2.02.282-2.13-.76L0 48.716V5.128C0 2.38 2.11.14 4.761.006L5.011 0h39.72zm0 2.25H5.012c-1.451 0-2.658 1.173-2.756 2.68l-.006.198v41.158l8.433-8.627a3.492 3.492 0 0 1 2.24-1.043l.255-.01h31.555c1.588 0 2.907-1.285 3.01-2.931l.007-.208V5.39c0-1.675-1.257-3.028-2.821-3.133l-.197-.007zM37.5 18.875a1.125 1.125 0 0 1 .141 2.241l-.141.009h-5a1.125 1.125 0 0 1-.141-2.241l.141-.009h5zm5-5a1.125 1.125 0 0 1 .141 2.241l-.141.009h-10a1.125 1.125 0 0 1-.141-2.241l.141-.009h10zm0-5a1.125 1.125 0 0 1 .141 2.241l-.141.009h-10a1.125 1.125 0 0 1-.141-2.241l.141-.009h10z" fill="#283A3E"/>
        <path d="M17.5 8.875c3.528 0 6.546 2.11 7.6 5.063a4.25 4.25 0 0 1 .4 8.287v.275a1.125 1.125 0 0 1-2.241.141l-.009-.141v-6.25c0-2.805-2.552-5.125-5.75-5.125-3.104 0-5.6 2.185-5.743 4.879l-.007.202v6.169l-.001-.001.001 1.376c0 2.217 1.594 4.132 3.842 4.836a2.375 2.375 0 1 1-.316 2.25c-3.234-.86-5.643-3.555-5.77-6.814L9.5 23.75v-1.526a4.252 4.252 0 0 1 .4-8.287c1.054-2.952 4.072-5.062 7.6-5.062z" fill="#00ECA1"/>
    </g>
</svg>
