<svg width="32" height="32" viewBox="0 0 32 32" xmlns="http://www.w3.org/2000/svg">
    <g fill-rule="nonzero" fill="none">
        <path d="M11.005 15.26c.388 0 .702.331.702.74 0 .377-.268.689-.614.734l-.088.006H7.102c-.388 0-.702-.331-.702-.74 0-.377.268-.689.614-.734l.088-.006h3.903zm11.551 0c.388 0 .703.331.703.74 0 .377-.268.689-.615.734l-.088.006h-8.585c-.388 0-.703-.331-.703-.74 0-.377.268-.689.615-.734l.088-.006h8.585z" fill="#00ECA1"/>
        <path d="M24.898 8c.388 0 .702.331.702.74 0 .378-.268.689-.614.735l-.088.005H7.102c-.388 0-.702-.331-.702-.74 0-.377.268-.689.614-.734L7.102 8h17.796zM24.898 22.52c.388 0 .702.331.702.74 0 .377-.268.689-.614.734l-.088.006H7.102c-.388 0-.702-.331-.702-.74 0-.378.268-.689.614-.735l.088-.005h17.796z" fill="#283A3E"/>
    </g>
</svg>
