<svg width="50" height="50" viewBox="0 0 50 50" xmlns="http://www.w3.org/2000/svg">
    <g fill-rule="nonzero" fill="none">
        <path d="M25.133 9.938c3.28.003 6.428 1.225 8.755 3.4 2.338 2.183 3.66 5.149 3.675 8.253 0 4.628-2.79 10.293-7.795 16.513l-.788.961a83.097 83.097 0 0 1-2.567 2.933 1.8 1.8 0 0 1-.967.53l-.189.027-.168.007-.09-.005-.096.005a1.832 1.832 0 0 1-.916-.249l-.161-.105-.13-.105-.118-.115-.73-.807a79.07 79.07 0 0 1-2.102-2.447l-.655-.808-.641-.816c-4.534-5.864-7.012-11.155-7.012-15.524.015-3.1 1.336-6.066 3.673-8.249 2.135-1.994 4.96-3.188 7.951-3.374l.429-.02.377-.005h.265zm-.002 1.964h-.262c-2.762.003-5.41 1.03-7.363 2.854-1.943 1.815-3.04 4.273-3.053 6.835 0 4.111 2.683 9.471 7.434 15.378l.4.493.671.807c.3.355.608.712.92 1.069l.474.535.6.707.062-.008.26-.283c6.033-6.667 9.763-12.931 10.224-17.71l.028-.34.016-.327.005-.317c-.013-2.566-1.11-5.024-3.053-6.84-1.953-1.823-4.6-2.85-7.363-2.853zM25 18.114a4.22 4.22 0 0 1 2.94 1.185c.78.759 1.22 1.789 1.22 2.863a3.994 3.994 0 0 1-1.22 2.863A4.218 4.218 0 0 1 25 26.21a4.218 4.218 0 0 1-2.94-1.185 3.994 3.994 0 0 1-1.22-2.863c0-1.074.44-2.104 1.22-2.864A4.219 4.219 0 0 1 25 18.114zm0 1.964c-.569 0-1.114.22-1.516.611-.402.39-.627.92-.627 1.473 0 .552.225 1.082.627 1.473.402.39.947.61 1.516.61.569 0 1.114-.22 1.516-.61.402-.391.627-.92.627-1.473 0-.552-.225-1.082-.626-1.473A2.176 2.176 0 0 0 25 20.08z" fill="#00ECA1"/>
        <path d="m22.292 1.217.615-.406C24.54-.271 25.382-.271 27.02.814c4.5 3.047 8.677 4.916 13.063 5.884l.49.091.502.085.82.122.963.128.754.093.164.024.858.09.19.032c1.777.216 2.602 1.246 2.67 2.675l.005.197v9.172l-.08 6.914-.025.635-.04.836-.009.32v.105c-.159 3.452-1.426 6.675-3.873 9.882-2.718 3.606-6.45 6.569-11.507 9.167a75.595 75.595 0 0 1-3.628 1.633l-1.937.805-.097.038a3.69 3.69 0 0 1-1.342.258c-.18 0-.337-.013-.5-.04l-.302-.063-.3-.078c-6.155-2.261-11.068-5.205-14.97-8.98-3.036-2.937-4.956-6.139-5.834-9.692a17.834 17.834 0 0 1-.547-3.884l-.009-.558V10.458c0-1.974.98-3.012 2.936-3.098 5.589-.356 10.953-2.301 16.856-6.143zm2.815 1.13-.09-.03-.613.405C17.698 7.09 11.533 9.361 5.024 9.856l-.181.013-.003 8.85-.018 3.481-.028 2.541-.031 1.886c0 1.309.16 2.62.484 3.936.724 3.084 2.417 5.858 5.247 8.57 3.56 3.485 8.12 6.238 13.91 8.422l.591.218.913-.379 1.307-.53.858-.358.72-.312.637-.292.298-.143.584-.294c.097-.05.195-.102.294-.155 4.9-2.466 8.527-5.289 11.088-8.662 2.13-2.798 3.215-5.557 3.382-8.497l.017-.138.026-.287.018-.323.014-.609.004-.524v-.522l.082-6.896V9.753l-.418-.046-.192-.029a1.953 1.953 0 0 1-.077-.015c-1.312-.08-2.509-.223-3.596-.447l-.535-.119C35.58 8.092 30.693 5.982 25.688 2.73l-.581-.383z" fill="#283A3E"/>
    </g>
</svg>
