<svg width="16" height="16" viewBox="0 0 16 16" xmlns="http://www.w3.org/2000/svg">
    <path d="M11.194 0A4.812 4.812 0 0 1 16 4.806v6.388A4.812 4.812 0 0 1 11.194 16H4.806A4.811 4.811 0 0 1 0 11.194V4.806A4.811 4.811 0 0 1 4.806 0h6.388zm0 1.505H4.806a3.305 3.305 0 0 0-3.3 3.301v6.388a3.304 3.304 0 0 0 3.3 3.3h6.388c1.82 0 3.3-1.48 3.3-3.3V4.806a3.305 3.305 0 0 0-3.3-3.3zM8.065 4.06A3.945 3.945 0 0 1 12.005 8a3.945 3.945 0 0 1-3.94 3.94A3.945 3.945 0 0 1 4.125 8a3.945 3.945 0 0 1 3.94-3.94zm0 1.416A2.526 2.526 0 0 0 5.542 8a2.527 2.527 0 0 0 2.523 2.524A2.527 2.527 0 0 0 10.59 8a2.527 2.527 0 0 0-2.525-2.524zm4.171-2.62a.938.938 0 1 1-.001 1.876.938.938 0 0 1 .001-1.875z" fill="#FFF" fill-rule="evenodd"/>
</svg>
