<svg width="16" height="16" viewBox="0 0 16 16" xmlns="http://www.w3.org/2000/svg">
    <path d="M14.93 6.473a4.29 4.29 0 0 1-.382.02 4.135 4.135 0 0 1-3.48-1.93v6.576c0 2.684-2.12 4.861-4.734 4.861C3.72 16 1.6 13.823 1.6 11.139c0-2.685 2.119-4.86 4.734-4.86.099 0 .195.008.293.014v2.395c-.098-.011-.193-.03-.293-.03-1.335 0-2.416 1.11-2.416 2.482 0 1.37 1.081 2.48 2.416 2.48 1.334 0 2.513-1.08 2.513-2.45L8.87 0h2.232c.21 2.055 1.825 3.66 3.831 3.811v2.662" fill="#FFF" fill-rule="evenodd"/>
</svg>
