<svg width="16" height="17" viewBox="0 0 16 17" xmlns="http://www.w3.org/2000/svg">
    <path d="M8.078.5C12.446.5 16 4.046 16 8.402c0 4.358-3.554 7.903-7.922 7.903a7.925 7.925 0 0 1-3.766-.958L0 16.5l1.15-4.28a7.862 7.862 0 0 1-.993-3.818C.157 4.046 3.71.5 8.077.5zm0 1.493c-3.542 0-6.425 2.875-6.425 6.41 0 1.167.326 2.315.94 3.323l.167.272-.642 2.39 2.409-.645.271.162a6.427 6.427 0 0 0 3.28.906c3.543 0 6.424-2.876 6.424-6.409 0-3.534-2.881-6.409-6.424-6.409zM4.94 5.025c.273-.221.677-.318.983-.146.333.188.507.662.66.995.122.26.26.601.21.893-.05.291-.282.537-.466.754-.125.146-.143.27-.04.429.61 1.014 1.458 1.75 2.564 2.191.15.06.268.041.366-.079.19-.235.378-.695.674-.816.384-.156.808.06 1.133.255.304.182.813.404.895.778.04.181.003.372-.067.544-.239.579-.833.95-1.436 1.063-.574.11-1.05-.073-1.582-.248a6.57 6.57 0 0 1-1.36-.645 7.76 7.76 0 0 1-2.18-2.019 8.735 8.735 0 0 1-.502-.763c-.205-.348-.387-.714-.481-1.107a2.219 2.219 0 0 1-.064-.501c-.006-.595.221-1.194.693-1.578z" fill="#00ECA1" fill-rule="nonzero"/>
</svg>
